<svg width="43" height="43" viewBox="0 0 43 43" fill="none" xmlns="http://www.w3.org/2000/svg">
<path d="M26.0013 10.8573C25.6262 11.2399 25.4161 11.7544 25.4161 12.2903C25.4161 12.8261 25.6262 13.3406 26.0013 13.7233L29.2767 16.9987C29.6594 17.3738 30.1739 17.5839 30.7097 17.5839C31.2456 17.5839 31.7601 17.3738 32.1427 16.9987L39.8604 9.28098C40.8898 11.5557 41.2015 14.0902 40.7539 16.5466C40.3064 19.0029 39.1208 21.2646 37.3553 23.0301C35.5898 24.7956 33.3281 25.9812 30.8718 26.4287C28.4154 26.8763 25.8809 26.5646 23.6062 25.5352L9.46047 39.6809C8.64607 40.4953 7.5415 40.9529 6.38977 40.9529C5.23803 40.9529 4.13346 40.4953 3.31906 39.6809C2.50466 38.8665 2.04714 37.762 2.04714 36.6102C2.04714 35.4585 2.50466 34.3539 3.31906 33.5395L17.4648 19.3938C16.4354 17.1191 16.1237 14.5846 16.5713 12.1282C17.0188 9.67187 18.2044 7.41022 19.9699 5.6447C21.7354 3.87918 23.9971 2.69364 26.4534 2.24608C28.9098 1.79853 31.4443 2.1102 33.719 3.13957L26.0013 10.8573Z" stroke="#1E1E1E" stroke-width="4" stroke-linecap="round" stroke-linejoin="round"/>
</svg>
