<svg width="25" height="37" viewBox="0 0 25 37" fill="none" xmlns="http://www.w3.org/2000/svg">
<path d="M23 15.5V18.5C23 21.2848 21.8938 23.9555 19.9246 25.9246C17.9555 27.8938 15.2848 29 12.5 29M12.5 29C9.71523 29 7.04451 27.8938 5.07538 25.9246C3.10625 23.9555 2 21.2848 2 18.5V15.5M12.5 29V35M6.5 35H18.5M12.5 2C11.3065 2 10.1619 2.47411 9.31802 3.31802C8.47411 4.16193 8 5.30653 8 6.5V18.5C8 19.6935 8.47411 20.8381 9.31802 21.682C10.1619 22.5259 11.3065 23 12.5 23C13.6935 23 14.8381 22.5259 15.682 21.682C16.5259 20.8381 17 19.6935 17 18.5V6.5C17 5.30653 16.5259 4.16193 15.682 3.31802C14.8381 2.47411 13.6935 2 12.5 2Z" stroke="#1E1E1E" stroke-width="4" stroke-linecap="round" stroke-linejoin="round"/>
</svg>
