<svg width="36" height="36" viewBox="0 0 36 36" fill="none" xmlns="http://www.w3.org/2000/svg">
  <circle cx="18" cy="18" r="18" fill="#E8F5E9"/>
  <path d="M18 8C12.4772 8 8 12.4772 8 18C8 23.5228 12.4772 28 18 28C23.5228 28 28 23.5228 28 18C28 12.4772 23.5228 8 18 8ZM15 13H17V15H15V13ZM21 13H19V15H21V13ZM22.5 22.5H13.5V20.5H22.5V22.5ZM15 19C14.4477 19 14 18.5523 14 18C14 17.4477 14.4477 17 15 17C15.5523 17 16 17.4477 16 18C16 18.5523 15.5523 19 15 19ZM21 19C20.4477 19 20 18.5523 20 18C20 17.4477 20.4477 17 21 17C21.5523 17 22 17.4477 22 18C22 18.5523 21.5523 19 21 19Z" fill="#4CAF50"/>
</svg> 