<svg width="45" height="45" viewBox="0 0 45 45" fill="none" xmlns="http://www.w3.org/2000/svg">
<path d="M20.3424 6.3495H6.10271C5.02368 6.3495 3.98885 6.77814 3.22586 7.54113C2.46288 8.30412 2.03424 9.33895 2.03424 10.418V38.8973C2.03424 39.9763 2.46288 41.0111 3.22586 41.7741C3.98885 42.5371 5.02368 42.9658 6.10271 42.9658H34.582C35.661 42.9658 36.6959 42.5371 37.4589 41.7741C38.2218 41.0111 38.6505 39.9763 38.6505 38.8973V24.6576M35.5991 3.29815C36.4084 2.48888 37.506 2.03424 38.6505 2.03424C39.795 2.03424 40.8926 2.48888 41.7018 3.29815C42.5111 4.10742 42.9658 5.20502 42.9658 6.3495C42.9658 7.49398 42.5111 8.59159 41.7018 9.40086L22.3766 28.7261L14.2397 30.7603L16.2739 22.6234L35.5991 3.29815Z" stroke="#1E1E1E" stroke-width="4" stroke-linecap="round" stroke-linejoin="round"/>
</svg>
