<svg width="32" height="32" viewBox="0 0 32 32" fill="none" xmlns="http://www.w3.org/2000/svg">
  <rect width="32" height="32" rx="8" fill="#1976D2"/>
  <path d="M16 6C13.7909 6 12 7.79086 12 10V16C12 18.2091 13.7909 20 16 20C18.2091 20 20 18.2091 20 16V10C20 7.79086 18.2091 6 16 6Z" fill="white"/>
  <path d="M23 14C23 13.4477 22.5523 13 22 13C21.4477 13 21 13.4477 21 14V16C21 18.7614 18.7614 21 16 21C13.2386 21 11 18.7614 11 16V14C11 13.4477 10.5523 13 10 13C9.44772 13 9 13.4477 9 14V16C9 19.7297 11.8406 22.8349 15.5 23.4263V25.5H13C12.4477 25.5 12 25.9477 12 26.5C12 27.0523 12.4477 27.5 13 27.5H19C19.5523 27.5 20 27.0523 20 26.5C20 25.9477 19.5523 25.5 19 25.5H16.5V23.4263C20.1594 22.8349 23 19.7297 23 16V14Z" fill="white"/>
</svg> 