<svg width="37" height="38" viewBox="0 0 37 38" fill="none" xmlns="http://www.w3.org/2000/svg">
<path d="M2 2.00453L35 35.0045M14 14.0045V18.5045C14.0008 19.394 14.2651 20.2632 14.7596 21.0025C15.2542 21.7418 15.9567 22.318 16.7785 22.6583C17.6002 22.9985 18.5044 23.0876 19.3768 22.9143C20.2492 22.741 21.0507 22.3131 21.68 21.6845M23 14.5145V6.50453C23.0011 5.38858 22.5875 4.31201 21.8396 3.48383C21.0916 2.65565 20.0626 2.13495 18.9522 2.02279C17.8419 1.91064 16.7296 2.21505 15.8311 2.87691C14.9326 3.53878 14.3121 4.51089 14.09 5.60453M26 25.9295C24.5357 27.4242 22.6582 28.4472 20.6084 28.8674C18.5586 29.2876 16.43 29.0859 14.4957 28.288C12.5614 27.4901 10.9096 26.1324 9.75225 24.3893C8.59487 22.6461 7.98469 20.5969 8 18.5045V15.5045M29 15.5045V18.5045C28.9995 19.1232 28.9442 19.7406 28.835 20.3495M18.5 29.0045V35.0045M12.5 35.0045H24.5" stroke="#1E1E1E" stroke-width="4" stroke-linecap="round" stroke-linejoin="round"/>
</svg>
