<svg width="36" height="36" viewBox="0 0 36 36" fill="none" xmlns="http://www.w3.org/2000/svg">
  <circle cx="18" cy="18" r="18" fill="#E3F2FD"/>
  <path d="M18 10C14.686 10 12 12.686 12 16C12 17.599 12.6717 19.0538 13.7681 20.0819C11.2656 21.5626 9.5625 24.2068 9.5625 27.25H11.8125C11.8125 23.7928 14.5428 21 18 21C21.4573 21 24.1875 23.7928 24.1875 27.25H26.4375C26.4375 24.2068 24.7344 21.5626 22.2319 20.0819C23.3283 19.0538 24 17.599 24 16C24 12.686 21.314 10 18 10ZM18 12.25C20.0835 12.25 21.75 13.9165 21.75 16C21.75 18.0835 20.0835 19.75 18 19.75C15.9165 19.75 14.25 18.0835 14.25 16C14.25 13.9165 15.9165 12.25 18 12.25Z" fill="#1976D2"/>
</svg> 